<?xml version="1.0" encoding="UTF-8" standalone="no"?>
<!DOCTYPE svg PUBLIC "-//W3C//DTD SVG 1.1//EN"
 "http://www.w3.org/Graphics/SVG/1.1/DTD/svg11.dtd">
<!-- Generated by graphviz version 2.36.0 (20140111.2315)
 -->
<!-- Title: %3 Pages: 1 -->
<svg width="1611pt" height="710pt"
 viewBox="0.00 0.00 1611.00 710.00" xmlns="http://www.w3.org/2000/svg" xmlns:xlink="http://www.w3.org/1999/xlink">
<g id="graph0" class="graph" transform="scale(1 1) rotate(0) translate(4 706)">
<title>%3</title>
<polygon fill="white" stroke="none" points="-4,4 -4,-706 1607,-706 1607,4 -4,4"/>
<!-- IExternalPotential -->
<g id="node1" class="node"><title>IExternalPotential</title>
<polygon fill="none" stroke="black" points="939.5,-480.5 939.5,-625.5 1154.5,-625.5 1154.5,-480.5 939.5,-480.5"/>
<text text-anchor="middle" x="1047" y="-613.5" font-family="Ubuntu" font-size="10.00">&lt;&lt;Interface&gt;&gt; </text>
<text text-anchor="middle" x="1047" y="-602.5" font-family="Ubuntu" font-size="10.00"> IExternalPotential</text>
<polyline fill="none" stroke="black" points="939.5,-595.5 1154.5,-595.5 "/>
<text text-anchor="middle" x="1047" y="-583.5" font-family="Ubuntu" font-size="10.00"> </text>
<polyline fill="none" stroke="black" points="939.5,-576.5 1154.5,-576.5 "/>
<text text-anchor="start" x="947.5" y="-564.5" font-family="Ubuntu" font-size="10.00">+ virtual init(state, ParameterSet, AtomSet)</text>
<text text-anchor="start" x="947.5" y="-553.5" font-family="Ubuntu" font-size="10.00">+ virtual reinit(state)</text>
<text text-anchor="start" x="947.5" y="-542.5" font-family="Ubuntu" font-size="10.00">+ virtual calculate(state, step)</text>
<text text-anchor="start" x="947.5" y="-531.5" font-family="Ubuntu" font-size="10.00">+ virutal this_step(step:int)</text>
<text text-anchor="start" x="947.5" y="-520.5" font-family="Ubuntu" font-size="10.00">+ virtual result():ExternalPotentialResult</text>
<text text-anchor="start" x="947.5" y="-509.5" font-family="Ubuntu" font-size="10.00">+ virtual set_parallelization(</text>
<text text-anchor="end" x="1146.5" y="-498.5" font-family="Ubuntu" font-size="10.00">Parallel:ParallelizationInfrastructure)</text>
<text text-anchor="start" x="947.5" y="-487.5" font-family="Ubuntu" font-size="10.00">+ virtual finish()</text>
</g>
<!-- ExternalPotentialResult -->
<g id="node2" class="node"><title>ExternalPotentialResult</title>
<polygon fill="none" stroke="black" points="779.5,-189 779.5,-279 982.5,-279 982.5,-189 779.5,-189"/>
<text text-anchor="middle" x="881" y="-267" font-family="Ubuntu" font-size="10.00">ExternalPotentialResult</text>
<polyline fill="none" stroke="black" points="779.5,-260 982.5,-260 "/>
<text text-anchor="start" x="787.5" y="-248" font-family="Ubuntu" font-size="10.00">&#45; potential: real</text>
<text text-anchor="start" x="787.5" y="-237" font-family="Ubuntu" font-size="10.00">&#45; force:vector&lt;RVec&gt;</text>
<text text-anchor="start" x="787.5" y="-226" font-family="Ubuntu" font-size="10.00">&#45; affected_atoms: shared_ptr&lt;AtomSet&gt;</text>
<text text-anchor="start" x="787.5" y="-215" font-family="Ubuntu" font-size="10.00">&#45; virial:real</text>
<polyline fill="none" stroke="black" points="779.5,-208 982.5,-208 "/>
<text text-anchor="middle" x="881" y="-196" font-family="Ubuntu" font-size="10.00"> </text>
</g>
<!-- IExternalPotential&#45;&gt;ExternalPotentialResult -->
<g id="edge6" class="edge"><title>IExternalPotential&#45;&gt;ExternalPotentialResult</title>
<path fill="none" stroke="black" stroke-dasharray="5,2" d="M968.083,-480.215C968.083,-480.215 968.083,-289.377 968.083,-289.377"/>
<polygon fill="black" stroke="black" points="968.083,-279.377 972.583,-289.377 968.083,-284.377 968.083,-289.377 968.083,-289.377 968.083,-289.377 968.083,-284.377 963.583,-289.377 968.083,-279.377 968.083,-279.377"/>
</g>
<!-- ExternalPotentialManager -->
<g id="node7" class="node"><title>ExternalPotentialManager</title>
<polygon fill="none" stroke="black" points="624.5,-329 624.5,-441 771.5,-441 771.5,-329 624.5,-329"/>
<text text-anchor="middle" x="698" y="-429" font-family="Ubuntu" font-size="10.00">ExternalPotentialManager</text>
<polyline fill="none" stroke="black" points="624.5,-422 771.5,-422 "/>
<text text-anchor="start" x="632.5" y="-410" font-family="Ubuntu" font-size="10.00">&#45; vector&lt;IExternalPotential&gt;</text>
<text text-anchor="start" x="632.5" y="-399" font-family="Ubuntu" font-size="10.00">&#45; modules_:Modules</text>
<polyline fill="none" stroke="black" points="624.5,-392 771.5,-392 "/>
<text text-anchor="start" x="632.5" y="-380" font-family="Ubuntu" font-size="10.00">+ init()</text>
<text text-anchor="start" x="632.5" y="-369" font-family="Ubuntu" font-size="10.00">+ calculate()</text>
<text text-anchor="start" x="632.5" y="-358" font-family="Ubuntu" font-size="10.00">+ add_results()</text>
<text text-anchor="start" x="632.5" y="-347" font-family="Ubuntu" font-size="10.00">+ set_parallelization()</text>
<text text-anchor="start" x="632.5" y="-336" font-family="Ubuntu" font-size="10.00">+ finish()</text>
</g>
<!-- IExternalPotential&#45;&gt;ExternalPotentialManager -->
<g id="edge1" class="edge"><title>IExternalPotential&#45;&gt;ExternalPotentialManager</title>
<path fill="none" stroke="black" d="M953.917,-480.29C953.917,-434.886 953.917,-385 953.917,-385 953.917,-385 783.678,-385 783.678,-385"/>
<polygon fill="none" stroke="black" points="783.678,-385 777.678,-389 771.678,-385 777.678,-381 783.678,-385"/>
</g>
<!-- AtomSet -->
<g id="node8" class="node"><title>AtomSet</title>
<polygon fill="none" stroke="black" points="1032.5,-89 1032.5,-149 1235.5,-149 1235.5,-89 1032.5,-89"/>
<text text-anchor="middle" x="1134" y="-137" font-family="Ubuntu" font-size="10.00">AtomSet</text>
<polyline fill="none" stroke="black" points="1032.5,-130 1235.5,-130 "/>
<text text-anchor="middle" x="1134" y="-118" font-family="Ubuntu" font-size="10.00">+ AtomSet(natoms:int, index:vector&lt;int&gt;,</text>
<text text-anchor="end" x="1227.5" y="-107" font-family="Ubuntu" font-size="10.00"> global_to_local: gmx_ga2la_t *)</text>
<text text-anchor="start" x="1040.5" y="-96" font-family="Ubuntu" font-size="10.00">+ reinit(ga2la: gmx_ga2la_t *)</text>
</g>
<!-- IExternalPotential&#45;&gt;AtomSet -->
<g id="edge8" class="edge"><title>IExternalPotential&#45;&gt;AtomSet</title>
<path fill="none" stroke="black" stroke-dasharray="5,2" d="M1144.75,-480.358C1144.75,-480.358 1144.75,-159.198 1144.75,-159.198"/>
<polygon fill="black" stroke="black" points="1144.75,-149.198 1149.25,-159.198 1144.75,-154.198 1144.75,-159.198 1144.75,-159.198 1144.75,-159.198 1144.75,-154.198 1140.25,-159.198 1144.75,-149.198 1144.75,-149.198"/>
</g>
<!-- ParallelizationInfrastructure -->
<g id="node12" class="node"><title>ParallelizationInfrastructure</title>
<polygon fill="none" stroke="black" points="990.5,-329 990.5,-441 1135.5,-441 1135.5,-329 990.5,-329"/>
<text text-anchor="middle" x="1063" y="-429" font-family="Ubuntu" font-size="10.00">ParallelizationInfrastructure</text>
<polyline fill="none" stroke="black" points="990.5,-422 1135.5,-422 "/>
<text text-anchor="middle" x="1063" y="-410" font-family="Ubuntu" font-size="10.00"> </text>
<polyline fill="none" stroke="black" points="990.5,-403 1135.5,-403 "/>
<text text-anchor="start" x="998.5" y="-391" font-family="Ubuntu" font-size="10.00">+ cr()</text>
<text text-anchor="start" x="998.5" y="-380" font-family="Ubuntu" font-size="10.00">+ sum_reduce()</text>
<text text-anchor="start" x="998.5" y="-369" font-family="Ubuntu" font-size="10.00">+ broadcast()</text>
<text text-anchor="start" x="998.5" y="-358" font-family="Ubuntu" font-size="10.00">+ isMaster()</text>
<text text-anchor="start" x="998.5" y="-347" font-family="Ubuntu" font-size="10.00">+ from_buffer()</text>
<text text-anchor="start" x="998.5" y="-336" font-family="Ubuntu" font-size="10.00">+ to_buffer()</text>
</g>
<!-- IExternalPotential&#45;&gt;ParallelizationInfrastructure -->
<g id="edge13" class="edge"><title>IExternalPotential&#45;&gt;ParallelizationInfrastructure</title>
<path fill="none" stroke="black" stroke-dasharray="5,2" d="M1063,-480.29C1063,-480.29 1063,-451.106 1063,-451.106"/>
<polygon fill="black" stroke="black" points="1063,-441.106 1067.5,-451.106 1063,-446.106 1063,-451.106 1063,-451.106 1063,-451.106 1063,-446.106 1058.5,-451.106 1063,-441.106 1063,-441.106"/>
</g>
<!-- ExternalPotentialResult&#45;&gt;AtomSet -->
<g id="edge10" class="edge"><title>ExternalPotentialResult&#45;&gt;AtomSet</title>
<path fill="none" stroke="black" stroke-dasharray="5,2" d="M982.797,-234C1033.45,-234 1084,-234 1084,-234 1084,-234 1084,-159.215 1084,-159.215"/>
<polygon fill="black" stroke="black" points="1084,-149.215 1088.5,-159.215 1084,-154.215 1084,-159.215 1084,-159.215 1084,-159.215 1084,-154.215 1079.5,-159.215 1084,-149.215 1084,-149.215"/>
</g>
<!-- ExternalPotentialHelpers -->
<g id="node3" class="node"><title>ExternalPotentialHelpers</title>
<polygon fill="none" stroke="black" points="1226.5,-497 1226.5,-609 1603.5,-609 1603.5,-497 1226.5,-497"/>
<text text-anchor="middle" x="1415" y="-597" font-family="Ubuntu" font-size="10.00">ExternalPotentialHelpers</text>
<polyline fill="none" stroke="black" points="1226.5,-590 1603.5,-590 "/>
<text text-anchor="start" x="1234.5" y="-578" font-family="Ubuntu" font-size="10.00">&#45;impl</text>
<polyline fill="none" stroke="black" points="1226.5,-571 1603.5,-571 "/>
<text text-anchor="start" x="1234.5" y="-559" font-family="Ubuntu" font-size="10.00">+ sum_reduce_potential_virial()</text>
<text text-anchor="start" x="1234.5" y="-548" font-family="Ubuntu" font-size="10.00"> # read_input()</text>
<text text-anchor="start" x="1234.5" y="-537" font-family="Ubuntu" font-size="10.00"> # set_atom_properties(t_mdatoms * mdatoms, gmx_localtop_t * toplogy_loc);</text>
<text text-anchor="start" x="1234.5" y="-526" font-family="Ubuntu" font-size="10.00"> # AtomSetCoordinates(const rvec x[], int group_index);</text>
<text text-anchor="start" x="1234.5" y="-515" font-family="Ubuntu" font-size="10.00"> # single_atom_properties()</text>
<text text-anchor="start" x="1234.5" y="-504" font-family="Ubuntu" font-size="10.00"> # broadcast_internal()</text>
</g>
<!-- AtomProperties -->
<g id="node4" class="node"><title>AtomProperties</title>
<polygon fill="none" stroke="black" points="1369.5,-356.5 1369.5,-413.5 1460.5,-413.5 1460.5,-356.5 1369.5,-356.5"/>
<text text-anchor="middle" x="1415" y="-401.5" font-family="Ubuntu" font-size="10.00">AtomProperties</text>
<polyline fill="none" stroke="black" points="1369.5,-394.5 1460.5,-394.5 "/>
<text text-anchor="middle" x="1415" y="-382.5" font-family="Ubuntu" font-size="10.00"> </text>
<polyline fill="none" stroke="black" points="1369.5,-375.5 1460.5,-375.5 "/>
<text text-anchor="middle" x="1415" y="-363.5" font-family="Ubuntu" font-size="10.00"> </text>
</g>
<!-- ExternalPotentialHelpers&#45;&gt;AtomProperties -->
<g id="edge11" class="edge"><title>ExternalPotentialHelpers&#45;&gt;AtomProperties</title>
<path fill="none" stroke="black" stroke-dasharray="5,2" d="M1415,-496.591C1415,-496.591 1415,-423.686 1415,-423.686"/>
<polygon fill="black" stroke="black" points="1415,-413.686 1419.5,-423.686 1415,-418.686 1415,-423.686 1415,-423.686 1415,-423.686 1415,-418.686 1410.5,-423.686 1415,-413.686 1415,-413.686"/>
</g>
<!-- Foo -->
<g id="node5" class="node"><title>Foo</title>
<polygon fill="none" stroke="black" points="1202,-665 1202,-701 1330,-701 1330,-665 1202,-665"/>
<text text-anchor="middle" x="1266" y="-680.5" font-family="Ubuntu" font-size="10.00">SomeConcretePotential</text>
</g>
<!-- Foo&#45;&gt;IExternalPotential -->
<g id="edge4" class="edge"><title>Foo&#45;&gt;IExternalPotential</title>
<path fill="none" stroke="black" d="M1214.38,-664.965C1214.38,-645.424 1214.38,-617 1214.38,-617 1214.38,-617 1164.89,-617 1164.89,-617"/>
<polygon fill="none" stroke="black" points="1164.89,-613.5 1154.89,-617 1164.89,-620.5 1164.89,-613.5"/>
</g>
<!-- Foo&#45;&gt;ExternalPotentialHelpers -->
<g id="edge5" class="edge"><title>Foo&#45;&gt;ExternalPotentialHelpers</title>
<path fill="none" stroke="black" d="M1278.38,-664.924C1278.38,-664.924 1278.38,-619.169 1278.38,-619.169"/>
<polygon fill="none" stroke="black" points="1281.88,-619.169 1278.38,-609.169 1274.88,-619.169 1281.88,-619.169"/>
</g>
<!-- FooInfo -->
<g id="node6" class="node"><title>FooInfo</title>
<polygon fill="none" stroke="black" points="0,-349.5 0,-420.5 158,-420.5 158,-349.5 0,-349.5"/>
<text text-anchor="middle" x="79" y="-408.5" font-family="Ubuntu" font-size="10.00">SomeConcretePotentialInfo</text>
<polyline fill="none" stroke="black" points="0,-401.5 158,-401.5 "/>
<text text-anchor="start" x="8" y="-389.5" font-family="Ubuntu" font-size="10.00">+ static name:string</text>
<text text-anchor="start" x="8" y="-378.5" font-family="Ubuntu" font-size="10.00">+ static create:ModuleCreator</text>
<text text-anchor="start" x="8" y="-367.5" font-family="Ubuntu" font-size="10.00">+ static shortDescription:string</text>
<text text-anchor="start" x="8" y="-356.5" font-family="Ubuntu" font-size="10.00">+ static numberIndexGroups:int</text>
</g>
<!-- Modules -->
<g id="node10" class="node"><title>Modules</title>
<polygon fill="none" stroke="black" points="259.5,-200 259.5,-268 522.5,-268 522.5,-200 259.5,-200"/>
<text text-anchor="middle" x="391" y="-256" font-family="Ubuntu" font-size="10.00">Modules</text>
<polyline fill="none" stroke="black" points="259.5,-249 522.5,-249 "/>
<text text-anchor="start" x="267.5" y="-237" font-family="Ubuntu" font-size="10.00">+ module: std::map&lt;ModuleName, ModuleProperties&gt; </text>
<text text-anchor="start" x="267.5" y="-226" font-family="Ubuntu" font-size="10.00"> &lt;&lt;typedef&gt;&gt; ModuleName:string</text>
<polyline fill="none" stroke="black" points="259.5,-219 522.5,-219 "/>
<text text-anchor="middle" x="391" y="-207" font-family="Ubuntu" font-size="10.00"> </text>
</g>
<!-- FooInfo&#45;&gt;Modules -->
<g id="edge12" class="edge"><title>FooInfo&#45;&gt;Modules</title>
<path fill="none" stroke="black" stroke-dasharray="5,2" d="M79,-349.215C79,-304.562 79,-234 79,-234 79,-234 249.136,-234 249.136,-234"/>
<polygon fill="black" stroke="black" points="259.136,-234 249.136,-238.5 254.136,-234 249.136,-234 249.136,-234 249.136,-234 254.136,-234 249.136,-229.5 259.136,-234 259.136,-234"/>
<text text-anchor="middle" x="148" y="-301.5" font-family="Times,serif" font-size="10.00">registerExternalPotentialModules</text>
</g>
<!-- ExternalPotentialManager&#45;&gt;ExternalPotentialResult -->
<g id="edge7" class="edge"><title>ExternalPotentialManager&#45;&gt;ExternalPotentialResult</title>
<path fill="none" stroke="black" stroke-dasharray="5,2" d="M722.417,-328.85C722.417,-301.318 722.417,-274 722.417,-274 722.417,-274 769.221,-274 769.221,-274"/>
<polygon fill="black" stroke="black" points="779.221,-274 769.221,-278.5 774.221,-274 769.221,-274 769.221,-274 769.221,-274 774.221,-274 769.221,-269.5 779.221,-274 779.221,-274"/>
</g>
<!-- ExternalPotentialManager&#45;&gt;Modules -->
<g id="edge9" class="edge"><title>ExternalPotentialManager&#45;&gt;Modules</title>
<path fill="none" stroke="black" stroke-dasharray="5,2" d="M673.583,-328.773C673.583,-285.842 673.583,-234 673.583,-234 673.583,-234 532.777,-234 532.777,-234"/>
<polygon fill="black" stroke="black" points="522.777,-234 532.777,-229.5 527.777,-234 532.777,-234 532.777,-234 532.777,-234 527.777,-234 532.777,-238.5 522.777,-234 522.777,-234"/>
</g>
<!-- AtomSetManager -->
<g id="node9" class="node"><title>AtomSetManager</title>
<polygon fill="none" stroke="black" points="1060,-0.5 1060,-49.5 1208,-49.5 1208,-0.5 1060,-0.5"/>
<text text-anchor="middle" x="1134" y="-37.5" font-family="Ubuntu" font-size="10.00">AtomSetManager</text>
<polyline fill="none" stroke="black" points="1060,-30.5 1208,-30.5 "/>
<polyline fill="none" stroke="black" points="1060,-30.5 1208,-30.5 "/>
<text text-anchor="start" x="1068" y="-18.5" font-family="Ubuntu" font-size="10.00">+ reinit(ga2la: gmx_ga2la_t *)</text>
<text text-anchor="start" x="1068" y="-7.5" font-family="Ubuntu" font-size="10.00">+ finish()</text>
</g>
<!-- AtomSet&#45;&gt;AtomSetManager -->
<g id="edge2" class="edge"><title>AtomSet&#45;&gt;AtomSetManager</title>
<path fill="none" stroke="black" d="M1134,-88.9994C1134,-88.9994 1134,-61.6878 1134,-61.6878"/>
<polygon fill="none" stroke="black" points="1134,-61.6878 1130,-55.6878 1134,-49.6878 1138,-55.6878 1134,-61.6878"/>
</g>
<!-- ModuleProperties -->
<g id="node11" class="node"><title>ModuleProperties</title>
<polygon fill="none" stroke="black" points="230,-349.5 230,-420.5 552,-420.5 552,-349.5 230,-349.5"/>
<text text-anchor="middle" x="391" y="-408.5" font-family="Ubuntu" font-size="10.00">ModuleProperties</text>
<polyline fill="none" stroke="black" points="230,-401.5 552,-401.5 "/>
<text text-anchor="start" x="238" y="-389.5" font-family="Ubuntu" font-size="10.00">+ &lt;&lt;typedef&gt;&gt; unique_ptr&lt;IExternalPotential&gt; (* ModuleCreator) ()</text>
<text text-anchor="start" x="238" y="-378.5" font-family="Ubuntu" font-size="10.00">+ create:ModuleCreator</text>
<text text-anchor="start" x="238" y="-367.5" font-family="Ubuntu" font-size="10.00">+ shortDescription:string</text>
<text text-anchor="start" x="238" y="-356.5" font-family="Ubuntu" font-size="10.00">+ numberIndexGroups:int</text>
</g>
<!-- ModuleProperties&#45;&gt;Modules -->
<g id="edge3" class="edge"><title>ModuleProperties&#45;&gt;Modules</title>
<path fill="none" stroke="black" d="M391,-349.215C391,-349.215 391,-280.23 391,-280.23"/>
<polygon fill="none" stroke="black" points="391,-280.23 387,-274.23 391,-268.23 395,-274.23 391,-280.23"/>
</g>
</g>
</svg>
